<svg width="32" height="32" viewBox="0 0 184.54 268.51" fill="none" xmlns="http://www.w3.org/2000/svg">
  <defs>
    <style>
      .cls-1 {
        fill: #163f35;
      }
      .cls-2 {
        fill: #aebc82;
      }
    </style>
  </defs>
  <g>
    <path class="cls-2" d="M146.08,92.16v56.66l-82.91-59.16c-8.21-5.86-18.88-6.63-27.85-2.01-8.97,4.62-14.54,13.75-14.54,23.84v85.53c0,39.42,32.07,71.49,71.49,71.49s71.49-32.07,71.49-71.49v-112.66l-17.67,7.8ZM87.39,214.36c-11.15-2.48-8.63-22.62-25.15-12.71-16.52,9.91-30.53,3.3-30.53,3.3,0,0,17.76,1.89,37.17-21.36,19.41-23.25,27.26-20.35,21.48-9.2s.27,18.8,4.13,23.33c4.68,5.48,4.05,19.12-7.1,16.64ZM110.14,205.4s19.08-22.03,23.61-21.06c12.04,2.58-23.61,21.06-23.61,21.06ZM146.08,184.8c-12.39-15.02-14.11-7.31-23.82-1.96-9.9,5.45-19.41-19.71-28.52-24.86-9.11-5.15-29.71,23.77-43.58,30.9-6.63,3.41-10,.93-11.71-2.59v-74.79c0-3.49,1.85-6.53,4.96-8.13,1.35-.7,2.79-1.04,4.21-1.04,1.85,0,3.68.58,5.28,1.73l93.17,66.48v14.27Z"/>
    <path class="cls-1" d="M184.54,79.3l-35.41-14.51c-10.55-14.12-25.96-23.77-43.16-27.15L92.34,0l-13.75,37.65c-17.17,3.38-32.54,13.01-43.08,27.1L0,79.3h40.74l-.03-.1c10.3-18.93,30.07-30.68,51.59-30.68s41.24,11.72,51.55,30.6l-.05.18h40.74Z"/>
  </g>
</svg>