<?xml version="1.0" encoding="UTF-8"?>
<svg id="Capa_2" data-name="Capa 2" xmlns="http://www.w3.org/2000/svg" viewBox="0 0 70.33 102.33">
  <defs>
    <style>
      .cls-1 {
        fill: #163f35;
      }
    </style>
  </defs>
  <g id="Layer_1" data-name="Layer 1">
    <g>
      <path class="cls-1" d="M55.67,35.12v21.59l-31.59-22.55c-3.13-2.23-7.2-2.53-10.61-.77-3.42,1.76-5.54,5.24-5.54,9.09v32.6c0,15.02,12.22,27.24,27.24,27.24s27.24-12.22,27.24-27.24v-42.93l-6.73,2.97ZM33.3,81.69c-4.25-.94-3.29-8.62-9.58-4.84-6.3,3.78-11.63,1.26-11.63,1.26,0,0,6.77.72,14.16-8.14,7.4-8.86,10.39-7.76,8.18-3.51s.1,7.16,1.57,8.89c1.78,2.09,1.54,7.29-2.71,6.34ZM41.97,78.28s7.27-8.4,9-8.03c4.59.98-9,8.03-9,8.03ZM55.67,70.43c-4.72-5.72-5.38-2.79-9.08-.75-3.77,2.08-7.4-7.51-10.87-9.48-3.47-1.96-11.32,9.06-16.61,11.78-2.53,1.3-3.81.35-4.46-.99v-28.5c0-1.33.71-2.49,1.89-3.1.51-.27,1.06-.4,1.6-.4.7,0,1.4.22,2.01.66l35.51,25.34v5.44Z"/>
      <path class="cls-1" d="M70.33,30.22l-13.49-5.53c-4.02-5.38-9.89-9.06-16.45-10.35L35.19,0l-5.24,14.35c-6.54,1.29-12.4,4.96-16.42,10.33L0,30.22h15.52v-.04c3.92-7.21,11.45-11.69,19.65-11.69s15.71,4.47,19.64,11.66l-.02.07h15.52Z"/>
    </g>
  </g>
</svg>