<?xml version="1.0" encoding="UTF-8"?>
<svg id="Capa_2" data-name="Capa 2" xmlns="http://www.w3.org/2000/svg" viewBox="0 0 223.46 86.57">
  <defs>
    <style>
      .cls-1 {
        fill: #fff;
      }

      .cls-2 {
        fill: #aebc82;
      }
    </style>
  </defs>
  <g id="Layer_1" data-name="Layer 1">
    <g>
      <g>
        <path class="cls-2" d="M47.1,29.71v18.27l-26.73-19.07c-2.65-1.89-6.09-2.14-8.98-.65-2.89,1.49-4.69,4.43-4.69,7.69v27.58c0,12.71,10.34,23.05,23.05,23.05s23.05-10.34,23.05-23.05V27.2l-5.7,2.51ZM28.18,69.11c-3.6-.8-2.78-7.29-8.11-4.1-5.33,3.2-9.84,1.06-9.84,1.06,0,0,5.73.61,11.98-6.89,6.26-7.49,8.79-6.56,6.92-2.97s.09,6.06,1.33,7.52c1.51,1.77,1.31,6.16-2.29,5.37ZM35.51,66.22s6.15-7.1,7.61-6.79c3.88.83-7.61,6.79-7.61,6.79ZM47.1,59.58c-3.99-4.84-4.55-2.36-7.68-.63-3.19,1.76-6.26-6.36-9.2-8.02-2.94-1.66-9.58,7.66-14.05,9.96-2.14,1.1-3.22.3-3.77-.83v-24.11c0-1.13.6-2.11,1.6-2.62.44-.22.9-.34,1.36-.34.6,0,1.19.19,1.7.56l30.04,21.44v4.6Z"/>
        <path class="cls-1" d="M59.5,25.57l-11.42-4.68c-3.4-4.55-8.37-7.66-13.92-8.75L29.77,0l-4.43,12.14c-5.54,1.09-10.49,4.2-13.89,8.74L0,25.57h13.13v-.03c3.31-6.1,9.68-9.89,16.63-9.89s13.29,3.78,16.62,9.87l-.02.06h13.13Z"/>
        <g>
          <path class="cls-2" d="M80.33,47.21h-5.65l-4.74,22.41.05.07h5.65l.96-5.75h4.43l.96,5.75h5.65l.05-.07-4.74-22.41h-2.64ZM77.07,61.2l.42-2.49c.25-1.7.63-4.38,1.13-8.04h.48c.47,3.68.83,6.36,1.08,8.04l.42,2.49h-3.52Z"/>
          <polygon class="cls-2" points="95.08 47.21 89.38 47.21 89.38 69.68 89.43 69.68 95.08 69.68 100.68 69.68 100.68 66.39 95.08 66.39 95.08 47.21"/>
          <polygon class="cls-2" points="112.31 50.51 112.31 47.21 98.04 47.21 98.04 50.51 102.35 50.51 102.35 69.68 108 69.68 108 50.51 112.31 50.51"/>
          <path class="cls-2" d="M121.4,47.21h-5.65l-4.74,22.41.05.07h5.65l.96-5.75h4.43l.96,5.75h5.65l.05-.07-4.74-22.41h-2.64ZM118.14,61.2l.42-2.49c.25-1.7.63-4.38,1.13-8.04h.48c.47,3.68.83,6.36,1.08,8.04l.42,2.49h-3.52Z"/>
        </g>
        <g>
          <path class="cls-1" d="M147.67,53.13c0,.38.15,1.66.46,3.84.3,2.18.58,4.03.83,5.55h-.43c-.32-1.12-.72-2.44-1.18-3.97-.47-1.52-.79-2.52-.97-2.99l-3.71-8.34h-6.41v22.47h5.71v-7.94c0-.29-.15-1.45-.46-3.48-.31-2.03-.57-3.66-.78-4.89l.43-.03c.32,1.03.73,2.28,1.21,3.75.48,1.47.83,2.46,1.05,2.98l4.2,9.62h5.76v-22.47h-5.71v5.92Z"/>
          <path class="cls-1" d="M168.74,47.95c-1.1-.63-2.74-.94-4.93-.94s-3.83.31-4.93.94c-1.09.63-1.85,1.74-2.26,3.35-.41,1.6-.62,4.01-.62,7.22s.21,5.53.62,7.12c.41,1.58,1.17,2.69,2.26,3.31,1.09.63,2.74.94,4.93.94s3.83-.31,4.93-.94c1.09-.63,1.86-1.73,2.29-3.31s.65-3.95.65-7.12-.22-5.61-.65-7.22c-.43-1.6-1.19-2.72-2.29-3.35ZM165.87,61.1c0,1.61-.05,2.78-.13,3.5-.09.72-.26,1.23-.51,1.53-.25.3-.7.45-1.35.45-.68,0-1.16-.15-1.43-.45-.27-.3-.45-.81-.54-1.53-.09-.72-.13-1.88-.13-3.5v-5.35c0-1.64.04-2.81.13-3.52.09-.71.27-1.21.54-1.5.27-.29.74-.44,1.43-.44.65,0,1.1.15,1.37.44.27.29.44.79.51,1.5.07.71.11,1.88.11,3.52v5.35Z"/>
          <path class="cls-1" d="M188.96,59.09c.57-1.08.86-2.61.86-4.61s-.26-3.45-.78-4.49c-.52-1.04-1.35-1.77-2.48-2.17-1.13-.4-2.68-.61-4.66-.61h-7.59v22.47h5.71v-7.74h1.69l2.46,7.74h5.71l.11-.07-2.91-8.61c.81-.44,1.44-1.08,1.89-1.92ZM180.02,50.44h1.88c.61,0,1.08.08,1.4.24.32.16.53.44.62.86.09.42.13,1.07.13,1.97v2.22c0,.96-.05,1.68-.16,2.15-.11.47-.33.79-.67.96-.34.17-.83.25-1.48.25h-1.72v-8.65Z"/>
          <polygon class="cls-1" points="190.41 50.51 194.72 50.51 194.72 69.68 200.37 69.68 200.37 50.51 204.67 50.51 204.67 47.21 190.41 47.21 190.41 50.51"/>
          <polygon class="cls-1" points="212.15 66.39 212.15 59.69 217.32 59.69 217.32 56.73 212.15 56.73 212.15 50.51 218.08 50.51 218.08 47.21 212.15 47.21 206.45 47.21 206.45 50.51 206.45 66.39 206.45 69.68 212.15 69.68 218.18 69.68 218.18 66.39 212.15 66.39"/>
        </g>
        <path class="cls-1" d="M105.33,37.89c-.05-.43,0-5.75.08-6.38.49-.05,1.52-.1,2.26-.1,1.83,0,2.88.7,2.88,2.23,0,.95-.47,1.51-1.21,1.81.73.84,1.47,1.96,1.44,2-.1.14-1.2.58-1.49.57-.03,0-.86-1.29-1.65-2.29-.04,0-.09,0-.12,0-.16,0-.39,0-.51-.02,0,.63,0,1.88-.05,2.15-.1.04-1.62.08-1.63.03ZM107.79,34.46c.62,0,1.05-.24,1.05-.79,0-.51-.28-.84-1.11-.84-.18,0-.44,0-.63.03,0,.25,0,1.26,0,1.58.18.02.47.03.69.03Z"/>
        <path class="cls-1" d="M122.16,37.89c.08.05-3.72.06-4.49,0-.05-.73,0-5.19.06-6.43.89-.06,4.43-.07,4.53-.03.07.17.07,1.09.02,1.4-.27.03-2.18.04-2.96,0l.02,1.12c.84,0,2.17,0,2.22.06.1.08.03,1.29.03,1.32,0,.05-1.35.05-2.25.02,0,.41,0,.85,0,1.17.86-.02,2.55-.03,2.82,0,.08.3.06,1.22,0,1.38Z"/>
        <path class="cls-1" d="M128.98,37.25c-.04-.18.43-1.36.53-1.31.22.13.94.62,1.75.62.56,0,.93-.17.93-.56,0-.29-.23-.51-1.21-.71-1.25-.25-1.95-.81-1.95-2.01,0-1.05.89-1.96,2.5-1.96,1.01,0,1.86.26,2.23.54.12.09-.45,1.29-.54,1.28-.14-.06-.84-.4-1.65-.4-.57,0-.84.22-.84.52,0,.28.16.43,1.09.63,1.23.28,2.19.75,2.19,2.01,0,.97-.81,1.99-2.67,1.99-1.07,0-2-.4-2.35-.65Z"/>
        <path class="cls-1" d="M145.41,37.89c.08.05-3.72.06-4.49,0-.05-.73,0-5.19.06-6.43.89-.06,4.43-.07,4.53-.03.07.17.07,1.09.02,1.4-.27.03-2.18.04-2.96,0l.02,1.12c.84,0,2.17,0,2.22.06.1.08.03,1.29.03,1.32,0,.05-1.35.05-2.25.02,0,.41,0,.85,0,1.17.86-.02,2.55-.03,2.82,0,.08.3.06,1.22,0,1.38Z"/>
        <path class="cls-1" d="M152.56,37.89c-.05-.43,0-5.75.08-6.38.49-.05,1.52-.1,2.26-.1,1.83,0,2.88.7,2.88,2.23,0,.95-.47,1.51-1.21,1.81.73.84,1.47,1.96,1.44,2-.1.14-1.2.58-1.49.57-.03,0-.86-1.29-1.65-2.29-.04,0-.09,0-.12,0-.16,0-.39,0-.51-.02,0,.63,0,1.88-.05,2.15-.1.04-1.62.08-1.63.03ZM155.03,34.46c.62,0,1.05-.24,1.05-.79,0-.51-.28-.84-1.11-.84-.18,0-.44,0-.63.03,0,.25,0,1.26,0,1.58.18.02.47.03.69.03Z"/>
        <path class="cls-1" d="M167.31,35.91c.16-.74,1.04-3.84,1.27-4.53.05-.04,1.73.02,1.77.16-.17.77-1.92,6.26-2,6.32-.1.06-1.77.11-2.01.06-.03,0-1.9-5.36-2.09-6.39.07-.16,1.71-.23,1.76-.17.08.16,1.12,3.8,1.26,4.55.02,0,.04,0,.06,0Z"/>
        <path class="cls-1" d="M180.55,36.57c-.23,0-1.69,0-2.03,0-.11.36-.39,1.28-.45,1.36-.05.04-1.66-.07-1.78-.16.18-.66,2.03-6.26,2.12-6.32.09-.06,1.95-.11,2.19-.06.03,0,2.02,5.35,2.22,6.39-.2.12-1.74.18-1.77.17-.08-.17-.39-1.04-.51-1.38ZM179.54,32.89c-.13.46-.54,1.82-.76,2.41.32,0,1.19-.02,1.59-.02-.24-.63-.64-1.96-.76-2.41-.02,0-.04,0-.06,0Z"/>
      </g>
      <g>
        <path class="cls-1" d="M67.58,82.37c-.03-.15.35-1.12.44-1.08.18.11.77.51,1.44.51.46,0,.76-.14.76-.46,0-.24-.19-.42-1-.58-1.03-.2-1.6-.67-1.6-1.66,0-.86.73-1.61,2.06-1.61.83,0,1.53.21,1.84.45.1.08-.37,1.06-.45,1.05-.12-.05-.69-.33-1.36-.33-.47,0-.69.18-.69.43,0,.23.13.36.9.52,1.01.23,1.8.62,1.8,1.66,0,.8-.67,1.64-2.2,1.64-.88,0-1.65-.33-1.93-.54Z"/>
        <path class="cls-1" d="M77.13,77.57s-.04,2.26-.04,2.26c0,0,1.92-2.28,1.98-2.28.07,0,1.16.31,1.17.4,0,.08-1.52,1.98-1.52,1.98.39.51,1.54,2.53,1.58,2.68,0,.06-1.05.43-1.3.37-.11-.09-1.11-1.87-1.27-2.13-.08.08-.59.63-.59.63v1.41c-.13.04-1.29.07-1.34.02-.06-.05-.17-5.19-.06-5.31.09-.1,1.36-.05,1.41-.03Z"/>
        <path class="cls-1" d="M85.6,77.6c.05.32.05,4.78,0,5.26-.05.14-1.39.08-1.4.03-.03-.54-.05-4.55,0-5.28.25-.09,1.35-.06,1.4-.02Z"/>
        <path class="cls-1" d="M90.5,84.34s-.59-.11-.71-.29c-.02-.02.39-.78.56-1.11-.35-.04-.68-.32-.68-.76,0-.52.33-.83.93-.8.36.02.75.21.75.79,0,.64-.57,1.7-.85,2.17Z"/>
        <path class="cls-1" d="M102.81,81.75c.64,0,1.07-.32,1.24-.45.18.12.53.73.65.99-.34.37-1.13.73-2.04.73-1.84,0-2.7-1.26-2.7-2.84s1.12-2.69,2.9-2.69c.9,0,1.56.27,1.8.5,0,.15-.33.97-.53,1.13-.28-.16-.76-.36-1.26-.36-.81,0-1.44.62-1.44,1.48,0,1.08.69,1.51,1.36,1.51Z"/>
        <path class="cls-1" d="M111.72,81.8c-.19,0-1.39,0-1.67,0-.09.29-.32,1.05-.37,1.12-.04.03-1.37-.06-1.46-.13.15-.54,1.67-5.16,1.75-5.2.07-.05,1.6-.09,1.8-.05.02,0,1.67,4.41,1.83,5.26-.17.1-1.43.15-1.45.14-.06-.14-.32-.85-.42-1.13ZM110.89,78.77c-.11.38-.45,1.5-.63,1.99.27,0,.98-.02,1.3-.02-.2-.52-.53-1.62-.63-1.98-.02,0-.03,0-.05,0Z"/>
        <path class="cls-1" d="M120.46,81.07c.3-1.21.91-3.36,1.05-3.48.08-.08,1.19-.08,1.35-.05.05.03.83,4.94.83,5.22-.09.14-1.3.24-1.32.18-.04-.19-.31-2.32-.42-3.3h-.03c-.23.88-.75,2.71-.94,3.24-.13.05-1.08.05-1.13-.02-.09-.2-.69-2.46-.88-3.24h-.03c-.13.85-.38,2.84-.49,3.28-.25.02-1.3-.09-1.31-.17.03-.39.83-4.83.93-5.14.05-.13,1.13-.11,1.3-.07.14.21.79,2.46,1.05,3.54h.04Z"/>
        <path class="cls-1" d="M127.71,82.89c-.04-.36-.05-4.73.02-5.25.4-.05,1.3-.08,1.91-.08,1.51,0,2.33.69,2.33,1.87,0,1.36-.83,1.92-2.33,1.92-.13,0-.33,0-.42,0,0,.52,0,1.39-.04,1.53-.03.05-1.45.07-1.46.02ZM129.72,80.17c.5,0,.87-.2.87-.67,0-.58-.47-.72-1.02-.72-.11,0-.28,0-.4.02,0,.22,0,1.07,0,1.35.14,0,.38.02.55.02Z"/>
        <path class="cls-1" d="M137.35,77.6c.05.32.05,4.78,0,5.26-.05.14-1.39.08-1.4.03-.03-.54-.05-4.55,0-5.28.25-.09,1.35-.06,1.4-.02Z"/>
        <path class="cls-1" d="M145.1,82.91c-.15-.18-1.28-1.96-2.04-3.09,0,1.09.05,2.45.02,3.02-.27.07-1.36.08-1.37,0-.04-.43-.06-4.69,0-5.2.03-.14,1.26-.14,1.3-.08.09.13,1.42,2.1,2.08,3.27.02-1.22-.03-2.77,0-3.17.27-.07,1.31-.05,1.36,0,.05.05.02,4.66-.05,5.17-.03.14-1.2.16-1.3.1Z"/>
        <path class="cls-1" d="M153.36,81.81c.27,0,.53-.08.71-.14,0-.19-.02-.72-.02-.72,0,0-.75.02-.91.03-.04-.05-.05-.89,0-.97.24-.05,2.15-.12,2.21-.06.05.08.03,2.3,0,2.47-.35.26-1.22.58-2.12.58-1.84,0-2.7-1.25-2.7-2.83s1.06-2.69,2.84-2.69c.91,0,1.56.29,1.81.51,0,.15-.45.94-.59,1.08-.29-.16-.7-.32-1.19-.32-.81,0-1.4.61-1.4,1.47,0,1.08.59,1.58,1.38,1.58Z"/>
        <path class="cls-1" d="M169.13,80.69c-.35.44-.81.94-.81.94l.72.66c-.17.34-.7.77-.85.78l-.72-.73c-.13.11-.61.62-1.63.62-1.07,0-1.69-.62-1.69-1.41,0-.88.69-1.31,1.1-1.57-.32-.29-.67-.75-.67-1.18,0-.7.59-1.33,1.64-1.33.86,0,1.59.52,1.59,1.33s-1.01,1.29-1.01,1.29l.73.71s.48-.43.72-.72c.16-.02.79.48.86.61ZM165.97,81.87c.46,0,.76-.35.76-.35l-.79-.89c-.07.07-.52.34-.52.76,0,.26.26.48.55.48ZM166.67,78.89c0-.27-.17-.45-.51-.45-.28,0-.49.22-.49.41,0,.2.25.49.43.63.12-.05.57-.28.57-.59Z"/>
        <path class="cls-1" d="M177.84,82.89c-.04-.36,0-4.73.06-5.25.4-.05,1.25-.08,1.86-.08,1.51,0,2.37.57,2.37,1.84,0,.79-.39,1.25-1,1.49.6.7,1.21,1.62,1.19,1.65-.09.11-.99.48-1.23.47-.02,0-.71-1.07-1.36-1.89-.03,0-.07,0-.1,0-.13,0-.32,0-.42-.02,0,.52,0,1.55-.04,1.77-.08.03-1.34.07-1.34.02ZM179.87,80.07c.51,0,.86-.2.86-.65,0-.42-.23-.7-.91-.7-.15,0-.36,0-.52.02,0,.2,0,1.04,0,1.3.15.02.39.02.57.02Z"/>
        <path class="cls-1" d="M189.99,82.89c.06.04-3.07.05-3.69,0-.04-.6,0-4.27.05-5.29.73-.05,3.65-.06,3.73-.02.05.14.05.9.02,1.15-.22.02-1.79.03-2.44,0l.02.92c.69,0,1.78,0,1.83.05.09.07.02,1.06.02,1.09,0,.04-1.11.04-1.86.02,0,.34,0,.7,0,.97.71-.02,2.1-.02,2.32,0,.06.25.05,1.01,0,1.13Z"/>
        <path class="cls-1" d="M193.89,82.37c-.03-.15.35-1.12.44-1.08.18.11.77.51,1.44.51.46,0,.76-.14.76-.46,0-.24-.19-.42-1-.58-1.03-.2-1.6-.67-1.6-1.66,0-.86.73-1.61,2.06-1.61.83,0,1.53.21,1.84.45.1.08-.37,1.06-.45,1.05-.12-.05-.69-.33-1.36-.33-.47,0-.69.18-.69.43,0,.23.13.36.9.52,1.01.23,1.8.62,1.8,1.66,0,.8-.67,1.64-2.2,1.64-.88,0-1.65-.33-1.93-.54Z"/>
        <path class="cls-1" d="M207.16,80.3c0,1.34-.83,2.71-2.7,2.71-1.67,0-2.72-1.14-2.72-2.83,0-1.37.9-2.71,2.7-2.71,1.65,0,2.73,1.07,2.73,2.83ZM204.46,78.71c-.81,0-1.27.61-1.27,1.55,0,.85.48,1.51,1.23,1.51.84,0,1.23-.62,1.23-1.56,0-1.01-.5-1.5-1.2-1.5Z"/>
        <path class="cls-1" d="M211.22,82.89c-.04-.36,0-4.73.06-5.25.4-.05,1.25-.08,1.86-.08,1.51,0,2.37.57,2.37,1.84,0,.79-.39,1.25-1,1.49.6.7,1.21,1.62,1.19,1.65-.09.11-.99.48-1.23.47-.02,0-.71-1.07-1.36-1.89-.03,0-.07,0-.1,0-.13,0-.32,0-.42-.02,0,.52,0,1.55-.04,1.77-.08.03-1.34.07-1.34.02ZM213.25,80.07c.51,0,.86-.2.86-.65,0-.42-.23-.7-.91-.7-.15,0-.36,0-.52.02,0,.2,0,1.04,0,1.3.15.02.39.02.57.02Z"/>
        <path class="cls-1" d="M219.23,77.63c.1-.05,3.78-.14,4.15-.08.11.03.1,1.15.05,1.16-.17.02-.73.04-1.39.06,0,1.46.02,3.76,0,4.07-.05.05-1.37.1-1.38.03-.03-.42-.04-2.75-.02-4.11-.51,0-1.16.02-1.37,0-.07-.23-.07-1.07-.03-1.11Z"/>
      </g>
    </g>
  </g>
</svg>