<?xml version="1.0" encoding="UTF-8"?>
<svg id="Capa_2" data-name="Capa 2" xmlns="http://www.w3.org/2000/svg" viewBox="0 0 239.24 94.65">
  <defs>
    <style>
      .cls-1 {
        fill: #163f35;
      }

      .cls-2 {
        fill: #aebc82;
      }
    </style>
  </defs>
  <g id="Layer_1" data-name="Layer 1">
    <g>
      <g>
        <path class="cls-2" d="M51.49,32.49v19.97l-29.22-20.85c-2.89-2.07-6.66-2.34-9.82-.71-3.16,1.63-5.13,4.85-5.13,8.4v30.15c0,13.89,11.3,25.2,25.2,25.2s25.2-11.3,25.2-25.2V29.74l-6.23,2.75ZM30.81,75.56c-3.93-.87-3.04-7.97-8.86-4.48-5.82,3.49-10.76,1.16-10.76,1.16,0,0,6.26.67,13.1-7.53,6.84-8.19,9.61-7.17,7.57-3.24-2.04,3.93.09,6.63,1.46,8.22,1.65,1.93,1.43,6.74-2.5,5.87ZM38.82,72.4s6.73-7.77,8.32-7.42c4.24.91-8.32,7.42-8.32,7.42ZM51.49,65.14c-4.37-5.29-4.97-2.58-8.4-.69-3.49,1.92-6.84-6.95-10.05-8.76-3.21-1.82-10.47,8.38-15.36,10.89-2.34,1.2-3.52.33-4.13-.91v-26.36c0-1.23.65-2.3,1.75-2.87.48-.25.98-.37,1.48-.37.65,0,1.3.2,1.86.61l32.84,23.44v5.03Z"/>
        <path class="cls-1" d="M65.05,27.95l-12.48-5.12c-3.72-4.98-9.15-8.38-15.21-9.57L32.55,0l-4.85,13.27c-6.05,1.19-11.47,4.59-15.18,9.55L0,27.95h14.36v-.04c3.62-6.67,10.59-10.82,18.18-10.82s14.54,4.13,18.17,10.79l-.02.06h14.36Z"/>
      </g>
      <g>
        <g>
          <g>
            <path class="cls-2" d="M87.83,51.62h-6.18l-5.18,24.5.06.07h6.18l1.05-6.29h4.85l1.05,6.29h6.18l.06-.07-5.18-24.5h-2.88ZM84.26,66.92l.45-2.72c.27-1.86.69-4.79,1.24-8.79h.53c.51,4.02.9,6.95,1.18,8.79l.45,2.72h-3.85Z"/>
            <polygon class="cls-2" points="103.96 51.62 97.72 51.62 97.72 76.19 97.78 76.19 103.96 76.19 110.08 76.19 110.08 72.58 103.96 72.58 103.96 51.62"/>
            <polygon class="cls-2" points="122.79 55.22 122.79 51.62 107.19 51.62 107.19 55.22 111.9 55.22 111.9 76.19 118.08 76.19 118.08 55.22 122.79 55.22"/>
            <path class="cls-2" d="M132.73,51.62h-6.18l-5.18,24.5.06.07h6.18l1.05-6.29h4.85l1.05,6.29h6.18l.06-.07-5.18-24.5h-2.88ZM129.16,66.92l.45-2.72c.27-1.86.69-4.79,1.24-8.79h.53c.51,4.02.9,6.95,1.18,8.79l.45,2.72h-3.85Z"/>
          </g>
          <g>
            <path class="cls-1" d="M161.45,58.09c0,.42.17,1.81.5,4.19.33,2.38.64,4.4.91,6.07h-.47c-.35-1.23-.79-2.67-1.29-4.34-.51-1.67-.86-2.76-1.06-3.27l-4.06-9.12h-7v24.57h6.24v-8.68c0-.32-.17-1.59-.5-3.81-.33-2.22-.62-4-.85-5.35l.47-.04c.35,1.13.79,2.5,1.32,4.1.53,1.61.91,2.69,1.15,3.26l4.59,10.52h6.3v-24.57h-6.24v6.47Z"/>
            <path class="cls-1" d="M184.49,52.42c-1.2-.69-2.99-1.03-5.38-1.03s-4.19.34-5.38,1.03c-1.2.69-2.02,1.91-2.47,3.66-.45,1.75-.68,4.38-.68,7.89s.23,6.05.68,7.78c.45,1.73,1.27,2.94,2.47,3.62,1.2.69,2.99,1.03,5.38,1.03s4.19-.34,5.38-1.03c1.2-.69,2.03-1.89,2.5-3.62.47-1.73.71-4.32.71-7.78s-.24-6.14-.71-7.89c-.47-1.75-1.3-2.97-2.5-3.66ZM181.34,66.81c0,1.77-.05,3.04-.15,3.83-.1.79-.29,1.34-.56,1.67-.28.33-.77.5-1.47.5-.75,0-1.27-.17-1.56-.5-.29-.33-.49-.89-.59-1.67-.1-.78-.15-2.06-.15-3.83v-5.85c0-1.79.05-3.07.15-3.84.1-.77.29-1.32.59-1.64.29-.32.81-.48,1.56-.48.71,0,1.21.16,1.5.48.29.32.48.86.56,1.64.08.77.12,2.05.12,3.84v5.85Z"/>
            <path class="cls-1" d="M206.59,64.6c.63-1.18.94-2.86.94-5.04s-.29-3.77-.85-4.91c-.57-1.14-1.47-1.93-2.71-2.37-1.24-.44-2.93-.66-5.09-.66h-8.3v24.57h6.24v-8.46h1.84l2.69,8.46h6.24l.12-.07-3.18-9.41c.88-.48,1.57-1.18,2.07-2.1ZM196.82,55.15h2.06c.67,0,1.18.09,1.53.26.35.17.58.48.68.94.1.45.15,1.17.15,2.15v2.43c0,1.05-.06,1.84-.18,2.35-.12.51-.36.86-.74,1.05-.37.18-.91.28-1.62.28h-1.88v-9.45Z"/>
            <polygon class="cls-1" points="208.18 55.22 212.88 55.22 212.88 76.19 219.06 76.19 219.06 55.22 223.77 55.22 223.77 51.62 208.18 51.62 208.18 55.22"/>
            <polygon class="cls-1" points="231.95 72.58 231.95 65.26 237.6 65.26 237.6 62.02 231.95 62.02 231.95 55.22 238.43 55.22 238.43 51.62 231.95 51.62 225.71 51.62 225.71 55.22 225.71 72.58 225.71 76.19 231.95 76.19 238.54 76.19 238.54 72.58 231.95 72.58"/>
          </g>
        </g>
        <g>
          <path class="cls-1" d="M115.16,41.42c-.05-.47-.01-6.28.08-6.98.53-.06,1.66-.11,2.47-.11,2,0,3.15.76,3.15,2.44,0,1.04-.51,1.66-1.33,1.98.79.92,1.61,2.15,1.58,2.19-.11.15-1.32.63-1.63.62-.03,0-.94-1.42-1.81-2.51-.04,0-.09,0-.14,0-.18,0-.43,0-.55-.02-.01.69-.01,2.06-.05,2.35-.1.04-1.77.09-1.78.03ZM117.85,37.68c.68,0,1.15-.26,1.15-.86,0-.56-.3-.92-1.21-.92-.2,0-.48,0-.69.03.01.27,0,1.38,0,1.73.2.02.51.03.75.03Z"/>
          <path class="cls-1" d="M133.56,41.42c.08.05-4.07.07-4.91-.01-.05-.79,0-5.67.06-7.03.97-.06,4.84-.08,4.96-.03.07.18.07,1.19.02,1.53-.29.03-2.38.04-3.24.01l.02,1.22c.92-.01,2.37.01,2.43.06.11.09.03,1.41.03,1.45,0,.05-1.47.05-2.46.02,0,.45,0,.93-.01,1.28.94-.02,2.79-.03,3.08,0,.08.33.06,1.33.01,1.51Z"/>
          <path class="cls-1" d="M141.02,40.73c-.04-.2.47-1.49.58-1.44.24.14,1.02.68,1.91.68.62,0,1.01-.18,1.01-.61,0-.32-.25-.56-1.33-.77-1.37-.27-2.13-.88-2.13-2.2,0-1.14.97-2.14,2.73-2.14,1.11,0,2.04.28,2.44.59.14.1-.49,1.41-.59,1.39-.16-.07-.92-.44-1.81-.44-.63,0-.92.24-.92.57,0,.31.18.47,1.19.69,1.35.3,2.39.82,2.39,2.2,0,1.06-.89,2.18-2.92,2.18-1.17,0-2.19-.44-2.57-.71Z"/>
          <path class="cls-1" d="M158.98,41.42c.08.05-4.07.07-4.91-.01-.05-.79,0-5.67.06-7.03.97-.06,4.84-.08,4.96-.03.07.18.07,1.19.02,1.53-.29.03-2.38.04-3.24.01l.02,1.22c.92-.01,2.37.01,2.43.06.11.09.03,1.41.03,1.45,0,.05-1.47.05-2.46.02,0,.45,0,.93-.01,1.28.94-.02,2.79-.03,3.08,0,.08.33.06,1.33.01,1.51Z"/>
          <path class="cls-1" d="M166.8,41.42c-.05-.47-.01-6.28.08-6.98.53-.06,1.66-.11,2.47-.11,2,0,3.15.76,3.15,2.44,0,1.04-.51,1.66-1.33,1.98.79.92,1.61,2.15,1.58,2.19-.11.15-1.32.63-1.63.62-.03,0-.94-1.42-1.81-2.51-.04,0-.09,0-.14,0-.18,0-.43,0-.55-.02-.01.69-.01,2.06-.05,2.35-.1.04-1.77.09-1.78.03ZM169.49,37.68c.68,0,1.15-.26,1.15-.86,0-.56-.3-.92-1.21-.92-.2,0-.48,0-.69.03.01.27,0,1.38,0,1.73.2.02.51.03.75.03Z"/>
          <path class="cls-1" d="M182.93,39.27c.18-.81,1.14-4.2,1.39-4.95.05-.04,1.89.02,1.93.17-.19.84-2.1,6.84-2.19,6.9-.1.06-1.93.12-2.2.07-.03,0-2.08-5.86-2.29-6.99.07-.17,1.87-.25,1.92-.18.08.17,1.22,4.16,1.38,4.98.02,0,.04-.01.06-.01Z"/>
          <path class="cls-1" d="M197.4,39.98c-.25.01-1.85,0-2.22,0-.13.39-.43,1.4-.49,1.49-.05.04-1.82-.08-1.94-.17.2-.72,2.22-6.84,2.32-6.9.09-.06,2.13-.12,2.39-.07.03.01,2.21,5.85,2.43,6.99-.22.13-1.9.2-1.93.18-.08-.18-.43-1.13-.55-1.51ZM196.29,35.96c-.15.5-.59,1.99-.83,2.64.36-.01,1.3-.02,1.73-.02-.26-.69-.7-2.15-.84-2.63-.02,0-.04.01-.06.01Z"/>
        </g>
        <g>
          <path class="cls-1" d="M75.77,89.71c-.03-.16.37-1.17.46-1.13.19.11.81.54,1.51.54.49,0,.8-.14.8-.48,0-.25-.2-.44-1.05-.61-1.08-.21-1.68-.7-1.68-1.74,0-.9.77-1.69,2.16-1.69.87,0,1.61.22,1.93.47.11.08-.39,1.11-.47,1.1-.12-.06-.73-.35-1.43-.35-.49,0-.73.19-.73.45,0,.25.14.37.94.55,1.06.24,1.89.65,1.89,1.74,0,.84-.7,1.72-2.31,1.72-.92,0-1.73-.35-2.03-.56Z"/>
          <path class="cls-1" d="M85.79,84.69s-.04,2.37-.04,2.37c0,0,2.01-2.39,2.08-2.39.07,0,1.22.32,1.23.42,0,.09-1.6,2.08-1.6,2.08.4.54,1.62,2.66,1.66,2.81,0,.06-1.1.45-1.37.39-.12-.09-1.16-1.96-1.34-2.24-.08.09-.62.67-.62.67v1.47c-.14.04-1.35.07-1.41.02-.06-.05-.18-5.45-.07-5.56.1-.1,1.43-.06,1.48-.03Z"/>
          <path class="cls-1" d="M94.67,84.72c.06.33.05,5.01,0,5.52-.05.14-1.46.09-1.47.03-.03-.56-.06-4.77,0-5.53.26-.09,1.42-.06,1.47-.02Z"/>
          <path class="cls-1" d="M99.81,91.78s-.62-.12-.74-.3c-.02-.02.41-.82.59-1.17-.36-.04-.71-.33-.71-.79,0-.55.35-.87.97-.84.38.02.78.22.78.82,0,.67-.59,1.78-.89,2.27Z"/>
          <path class="cls-1" d="M112.72,89.06c.67,0,1.12-.34,1.3-.47.19.13.55.77.68,1.04-.35.39-1.19.77-2.13.77-1.93,0-2.83-1.32-2.83-2.98s1.17-2.82,3.04-2.82c.95,0,1.63.29,1.89.52,0,.16-.35,1.01-.55,1.18-.3-.17-.8-.38-1.32-.38-.85,0-1.51.65-1.51,1.55,0,1.13.73,1.59,1.43,1.59Z"/>
          <path class="cls-1" d="M122.07,89.12c-.2,0-1.46,0-1.76,0-.1.31-.34,1.1-.39,1.17-.04.03-1.43-.06-1.53-.13.16-.57,1.76-5.41,1.83-5.45.07-.05,1.68-.1,1.89-.06.02,0,1.75,4.62,1.92,5.52-.17.1-1.5.16-1.52.14-.07-.14-.34-.9-.44-1.19ZM121.19,85.95c-.12.4-.47,1.57-.66,2.08.28,0,1.03-.02,1.37-.02-.21-.55-.55-1.7-.66-2.08-.02,0-.03,0-.05,0Z"/>
          <path class="cls-1" d="M131.23,88.36c.31-1.27.96-3.53,1.1-3.65.08-.08,1.25-.09,1.42-.05.06.03.87,5.18.87,5.47-.1.15-1.37.25-1.38.19-.04-.2-.32-2.43-.44-3.46h-.03c-.24.92-.78,2.85-.98,3.39-.13.05-1.14.05-1.19-.02-.1-.21-.73-2.58-.92-3.39h-.03c-.13.9-.4,2.98-.51,3.44-.26.02-1.37-.1-1.38-.18.03-.41.87-5.07.97-5.39.05-.13,1.19-.11,1.37-.07.15.22.83,2.58,1.1,3.72h.04Z"/>
          <path class="cls-1" d="M138.83,90.26c-.04-.37-.06-4.96.02-5.51.42-.05,1.36-.09,2-.09,1.58,0,2.44.72,2.44,1.97,0,1.43-.87,2.01-2.44,2.01-.14,0-.35,0-.45,0,0,.55,0,1.46-.04,1.6-.03.06-1.52.07-1.53.02ZM140.94,87.41c.52,0,.91-.21.91-.7,0-.61-.49-.75-1.07-.75-.12,0-.3,0-.42.02,0,.23,0,1.12,0,1.41.15,0,.4.02.58.02Z"/>
          <path class="cls-1" d="M148.94,84.72c.06.33.05,5.01,0,5.52-.05.14-1.46.09-1.47.03-.03-.56-.06-4.77,0-5.53.26-.09,1.42-.06,1.47-.02Z"/>
          <path class="cls-1" d="M157.06,90.28c-.16-.19-1.34-2.05-2.14-3.24,0,1.14.05,2.57.02,3.16-.28.07-1.43.08-1.43,0-.04-.45-.07-4.91,0-5.45.03-.14,1.32-.14,1.36-.09.09.13,1.49,2.2,2.18,3.42.02-1.28-.03-2.91,0-3.32.28-.07,1.38-.06,1.43,0,.05.05.02,4.88-.06,5.42-.03.14-1.26.17-1.36.1Z"/>
          <path class="cls-1" d="M165.73,89.13c.28,0,.56-.08.74-.14,0-.2-.02-.75-.02-.75,0,0-.79.02-.96.03-.04-.05-.06-.94,0-1.01.26-.06,2.26-.13,2.32-.06.06.09.03,2.41,0,2.59-.36.28-1.28.61-2.23.61-1.93,0-2.83-1.32-2.83-2.97s1.11-2.82,2.98-2.82c.96,0,1.63.31,1.9.54,0,.16-.47.98-.62,1.13-.3-.17-.73-.34-1.25-.34-.85,0-1.47.64-1.47,1.55,0,1.13.62,1.66,1.44,1.66Z"/>
          <path class="cls-1" d="M182.26,87.95c-.37.46-.85.98-.85.98l.76.69c-.18.36-.73.81-.89.82l-.76-.76c-.13.11-.64.65-1.71.65-1.12,0-1.77-.65-1.77-1.47,0-.93.73-1.37,1.15-1.65-.34-.31-.7-.78-.7-1.24,0-.74.62-1.39,1.72-1.39.91,0,1.66.55,1.66,1.39s-1.06,1.35-1.06,1.35l.77.74s.5-.45.76-.75c.16-.02.83.5.91.64ZM178.96,89.2c.48,0,.8-.36.8-.36l-.83-.94c-.07.07-.54.36-.54.79,0,.28.27.51.58.51ZM179.68,86.07c0-.28-.18-.48-.54-.48-.3,0-.51.23-.51.43,0,.21.26.51.45.67.12-.05.59-.29.59-.62Z"/>
          <path class="cls-1" d="M191.4,90.26c-.04-.37,0-4.96.07-5.51.42-.05,1.31-.09,1.95-.09,1.58,0,2.49.6,2.49,1.93,0,.82-.4,1.31-1.05,1.56.63.73,1.27,1.7,1.24,1.73-.09.12-1.04.5-1.29.49-.02,0-.74-1.12-1.43-1.98-.03,0-.07,0-.11,0-.14,0-.34,0-.44-.02,0,.55,0,1.62-.04,1.85-.08.03-1.4.07-1.41.02ZM193.53,87.3c.54,0,.91-.21.91-.68,0-.44-.24-.73-.96-.73-.16,0-.38,0-.54.02,0,.21,0,1.09,0,1.36.16.02.4.02.59.02Z"/>
          <path class="cls-1" d="M204.14,90.26c.07.04-3.21.06-3.87,0-.04-.63,0-4.48.05-5.55.77-.05,3.82-.06,3.92-.02.06.14.06.94.02,1.2-.23.02-1.88.03-2.56,0l.02.97c.73,0,1.87,0,1.92.05.09.07.02,1.11.02,1.14,0,.04-1.16.04-1.95.02,0,.36,0,.74,0,1.01.74-.02,2.2-.02,2.43,0,.07.26.05,1.05,0,1.19Z"/>
          <path class="cls-1" d="M208.23,89.71c-.03-.16.37-1.17.46-1.13.19.11.81.54,1.51.54.49,0,.8-.14.8-.48,0-.25-.2-.44-1.05-.61-1.08-.21-1.68-.7-1.68-1.74,0-.9.77-1.69,2.16-1.69.87,0,1.61.22,1.93.47.11.08-.39,1.11-.47,1.1-.12-.06-.73-.35-1.43-.35-.49,0-.73.19-.73.45,0,.25.14.37.94.55,1.06.24,1.89.65,1.89,1.74,0,.84-.7,1.72-2.31,1.72-.92,0-1.73-.35-2.03-.56Z"/>
          <path class="cls-1" d="M222.15,87.55c0,1.4-.87,2.84-2.84,2.84-1.76,0-2.85-1.2-2.85-2.96,0-1.43.94-2.84,2.83-2.84,1.73,0,2.86,1.12,2.86,2.96ZM219.31,85.88c-.85,0-1.33.64-1.33,1.62,0,.89.5,1.59,1.29,1.59.88,0,1.29-.65,1.29-1.64,0-1.06-.53-1.57-1.26-1.57Z"/>
          <path class="cls-1" d="M226.4,90.26c-.04-.37,0-4.96.07-5.51.42-.05,1.31-.09,1.95-.09,1.58,0,2.49.6,2.49,1.93,0,.82-.4,1.31-1.05,1.56.63.73,1.27,1.7,1.24,1.73-.09.12-1.04.5-1.29.49-.02,0-.74-1.12-1.43-1.98-.03,0-.07,0-.11,0-.14,0-.34,0-.44-.02,0,.55,0,1.62-.04,1.85-.08.03-1.4.07-1.41.02ZM228.53,87.3c.54,0,.91-.21.91-.68,0-.44-.24-.73-.96-.73-.16,0-.38,0-.54.02,0,.21,0,1.09,0,1.36.16.02.4.02.59.02Z"/>
          <path class="cls-1" d="M234.8,84.75c.11-.06,3.96-.14,4.35-.09.12.03.11,1.2.05,1.21-.17.02-.77.04-1.46.06,0,1.53.02,3.95,0,4.26-.05.06-1.43.1-1.44.03-.03-.44-.04-2.89-.02-4.31-.54,0-1.22.02-1.43,0-.07-.24-.07-1.12-.03-1.17Z"/>
        </g>
      </g>
    </g>
  </g>
</svg>